<svg width="470" height="88" viewBox="0 0 470 88" fill="none" class="disc" xmlns="http://www.w3.org/2000/svg">
            <path d="M1.60795 55.02C1.60795 53.66 1.92128 52.44 2.54795 51.36C3.18795 50.28 4.04795 49.44 5.12795 48.84C6.22128 48.2267 7.41462 47.92 8.70795 47.92C10.188 47.92 11.5013 48.2867 12.648 49.02C13.808 49.74 14.648 50.7667 15.168 52.1H12.428C12.068 51.3667 11.568 50.82 10.928 50.46C10.288 50.1 9.54795 49.92 8.70795 49.92C7.78795 49.92 6.96795 50.1267 6.24795 50.54C5.52795 50.9533 4.96128 51.5467 4.54795 52.32C4.14795 53.0933 3.94795 53.9933 3.94795 55.02C3.94795 56.0467 4.14795 56.9467 4.54795 57.72C4.96128 58.4933 5.52795 59.0933 6.24795 59.52C6.96795 59.9333 7.78795 60.14 8.70795 60.14C9.54795 60.14 10.288 59.96 10.928 59.6C11.568 59.24 12.068 58.6933 12.428 57.96H15.168C14.648 59.2933 13.808 60.32 12.648 61.04C11.5013 61.76 10.188 62.12 8.70795 62.12C7.40128 62.12 6.20795 61.82 5.12795 61.22C4.04795 60.6067 3.18795 59.76 2.54795 58.68C1.92128 57.6 1.60795 56.38 1.60795 55.02ZM28.9367 48.1V62H26.6567V55.92H20.1167V62H17.8367V48.1H20.1167V54.06H26.6567V48.1H28.9367ZM40.3183 59.16H34.4983L33.4983 62H31.1183L36.0983 48.08H38.7383L43.7183 62H41.3183L40.3183 59.16ZM39.6783 57.3L37.4183 50.84L35.1383 57.3H39.6783ZM53.1036 62L49.9036 56.44H48.1636V62H45.8836V48.1H50.6836C51.7502 48.1 52.6502 48.2867 53.3836 48.66C54.1302 49.0333 54.6836 49.5333 55.0436 50.16C55.4169 50.7867 55.6036 51.4867 55.6036 52.26C55.6036 53.1667 55.3369 53.9933 54.8036 54.74C54.2836 55.4733 53.4769 55.9733 52.3836 56.24L55.8236 62H53.1036ZM48.1636 54.62H50.6836C51.5369 54.62 52.1769 54.4067 52.6036 53.98C53.0436 53.5533 53.2636 52.98 53.2636 52.26C53.2636 51.54 53.0502 50.98 52.6236 50.58C52.1969 50.1667 51.5502 49.96 50.6836 49.96H48.1636V54.62ZM68.5803 52.1C68.2203 51.4067 67.7203 50.8867 67.0803 50.54C66.4403 50.18 65.7003 50 64.8603 50C63.9403 50 63.1203 50.2067 62.4003 50.62C61.6803 51.0333 61.1136 51.62 60.7003 52.38C60.3003 53.14 60.1003 54.02 60.1003 55.02C60.1003 56.02 60.3003 56.9067 60.7003 57.68C61.1136 58.44 61.6803 59.0267 62.4003 59.44C63.1203 59.8533 63.9403 60.06 64.8603 60.06C66.1003 60.06 67.107 59.7133 67.8803 59.02C68.6536 58.3267 69.127 57.3867 69.3003 56.2H64.0803V54.38H71.7403V56.16C71.5936 57.24 71.207 58.2333 70.5803 59.14C69.967 60.0467 69.1603 60.7733 68.1603 61.32C67.1736 61.8533 66.0736 62.12 64.8603 62.12C63.5536 62.12 62.3603 61.82 61.2803 61.22C60.2003 60.6067 59.3403 59.76 58.7003 58.68C58.0736 57.6 57.7603 56.38 57.7603 55.02C57.7603 53.66 58.0736 52.44 58.7003 51.36C59.3403 50.28 60.2003 49.44 61.2803 48.84C62.3736 48.2267 63.567 47.92 64.8603 47.92C66.3403 47.92 67.6536 48.2867 68.8003 49.02C69.9603 49.74 70.8003 50.7667 71.3203 52.1H68.5803ZM76.269 48.1V62H73.989V48.1H76.269ZM90.6825 62H88.4025L81.5425 51.62V62H79.2625V48.08H81.5425L88.4025 58.44V48.08H90.6825V62ZM103.737 52.1C103.377 51.4067 102.877 50.8867 102.237 50.54C101.597 50.18 100.857 50 100.017 50C99.0965 50 98.2765 50.2067 97.5565 50.62C96.8365 51.0333 96.2699 51.62 95.8565 52.38C95.4565 53.14 95.2565 54.02 95.2565 55.02C95.2565 56.02 95.4565 56.9067 95.8565 57.68C96.2699 58.44 96.8365 59.0267 97.5565 59.44C98.2765 59.8533 99.0965 60.06 100.017 60.06C101.257 60.06 102.263 59.7133 103.037 59.02C103.81 58.3267 104.283 57.3867 104.457 56.2H99.2365V54.38H106.897V56.16C106.75 57.24 106.363 58.2333 105.737 59.14C105.123 60.0467 104.317 60.7733 103.317 61.32C102.33 61.8533 101.23 62.12 100.017 62.12C98.7099 62.12 97.5165 61.82 96.4365 61.22C95.3565 60.6067 94.4965 59.76 93.8565 58.68C93.2299 57.6 92.9165 56.38 92.9165 55.02C92.9165 53.66 93.2299 52.44 93.8565 51.36C94.4965 50.28 95.3565 49.44 96.4365 48.84C97.5299 48.2267 98.7232 47.92 100.017 47.92C101.497 47.92 102.81 48.2867 103.957 49.02C105.117 49.74 105.957 50.7667 106.477 52.1H103.737ZM123.321 48.1V49.96H119.621V62H117.341V49.96H113.621V48.1H123.321ZM136.73 48.1V62H134.45V55.92H127.91V62H125.63V48.1H127.91V54.06H134.45V48.1H136.73ZM142.011 49.94V54.02H146.811V55.88H142.011V60.14H147.411V62H139.731V48.08H147.411V49.94H142.011ZM163.595 48.1V49.96H157.695V54.06H162.295V55.92H157.695V62H155.415V48.1H163.595ZM167.968 48.1V56.96C167.968 58.0133 168.241 58.8067 168.788 59.34C169.348 59.8733 170.121 60.14 171.108 60.14C172.108 60.14 172.881 59.8733 173.428 59.34C173.988 58.8067 174.268 58.0133 174.268 56.96V48.1H176.548V56.92C176.548 58.0533 176.301 59.0133 175.808 59.8C175.314 60.5867 174.654 61.1733 173.828 61.56C173.001 61.9467 172.088 62.14 171.088 62.14C170.088 62.14 169.174 61.9467 168.348 61.56C167.534 61.1733 166.888 60.5867 166.408 59.8C165.928 59.0133 165.688 58.0533 165.688 56.92V48.1H167.968ZM188.496 48.1V49.96H184.796V62H182.516V49.96H178.796V48.1H188.496ZM193.065 48.1V56.96C193.065 58.0133 193.339 58.8067 193.885 59.34C194.445 59.8733 195.219 60.14 196.205 60.14C197.205 60.14 197.979 59.8733 198.525 59.34C199.085 58.8067 199.365 58.0133 199.365 56.96V48.1H201.645V56.92C201.645 58.0533 201.399 59.0133 200.905 59.8C200.412 60.5867 199.752 61.1733 198.925 61.56C198.099 61.9467 197.185 62.14 196.185 62.14C195.185 62.14 194.272 61.9467 193.445 61.56C192.632 61.1733 191.985 60.5867 191.505 59.8C191.025 59.0133 190.785 58.0533 190.785 56.92V48.1H193.065ZM211.834 62L208.634 56.44H206.894V62H204.614V48.1H209.414C210.481 48.1 211.381 48.2867 212.114 48.66C212.861 49.0333 213.414 49.5333 213.774 50.16C214.147 50.7867 214.334 51.4867 214.334 52.26C214.334 53.1667 214.067 53.9933 213.534 54.74C213.014 55.4733 212.207 55.9733 211.114 56.24L214.554 62H211.834ZM206.894 54.62H209.414C210.267 54.62 210.907 54.4067 211.334 53.98C211.774 53.5533 211.994 52.98 211.994 52.26C211.994 51.54 211.781 50.98 211.354 50.58C210.927 50.1667 210.281 49.96 209.414 49.96H206.894V54.62ZM219.531 49.94V54.02H224.331V55.88H219.531V60.14H224.931V62H217.251V48.08H224.931V49.94H219.531ZM239.274 62.14C237.981 62.14 236.788 61.84 235.694 61.24C234.614 60.6267 233.754 59.78 233.114 58.7C232.488 57.6067 232.174 56.38 232.174 55.02C232.174 53.66 232.488 52.44 233.114 51.36C233.754 50.28 234.614 49.44 235.694 48.84C236.788 48.2267 237.981 47.92 239.274 47.92C240.581 47.92 241.774 48.2267 242.854 48.84C243.948 49.44 244.808 50.28 245.434 51.36C246.061 52.44 246.374 53.66 246.374 55.02C246.374 56.38 246.061 57.6067 245.434 58.7C244.808 59.78 243.948 60.6267 242.854 61.24C241.774 61.84 240.581 62.14 239.274 62.14ZM239.274 60.16C240.194 60.16 241.014 59.9533 241.734 59.54C242.454 59.1133 243.014 58.5133 243.414 57.74C243.828 56.9533 244.034 56.0467 244.034 55.02C244.034 53.9933 243.828 53.0933 243.414 52.32C243.014 51.5467 242.454 50.9533 241.734 50.54C241.014 50.1267 240.194 49.92 239.274 49.92C238.354 49.92 237.534 50.1267 236.814 50.54C236.094 50.9533 235.528 51.5467 235.114 52.32C234.714 53.0933 234.514 53.9933 234.514 55.02C234.514 56.0467 234.714 56.9533 235.114 57.74C235.528 58.5133 236.094 59.1133 236.814 59.54C237.534 59.9533 238.354 60.16 239.274 60.16ZM256.798 48.1V49.96H250.898V54.06H255.498V55.92H250.898V62H248.618V48.1H256.798Z" fill="white"/>
            <path d="M268.646 48.1C270.126 48.1 271.42 48.3867 272.526 48.96C273.646 49.52 274.506 50.3333 275.106 51.4C275.72 52.4533 276.026 53.6867 276.026 55.1C276.026 56.5133 275.72 57.74 275.106 58.78C274.506 59.82 273.646 60.62 272.526 61.18C271.42 61.7267 270.126 62 268.646 62H264.106V48.1H268.646ZM268.646 60.14C270.273 60.14 271.52 59.7 272.386 58.82C273.253 57.94 273.686 56.7 273.686 55.1C273.686 53.4867 273.253 52.2267 272.386 51.32C271.52 50.4133 270.273 49.96 268.646 49.96H266.386V60.14H268.646ZM280.566 48.1V62H278.286V48.1H280.566ZM293.619 52.1C293.259 51.4067 292.759 50.8867 292.119 50.54C291.479 50.18 290.739 50 289.899 50C288.979 50 288.159 50.2067 287.439 50.62C286.719 51.0333 286.153 51.62 285.739 52.38C285.339 53.14 285.139 54.02 285.139 55.02C285.139 56.02 285.339 56.9067 285.739 57.68C286.153 58.44 286.719 59.0267 287.439 59.44C288.159 59.8533 288.979 60.06 289.899 60.06C291.139 60.06 292.146 59.7133 292.919 59.02C293.693 58.3267 294.166 57.3867 294.339 56.2H289.119V54.38H296.779V56.16C296.633 57.24 296.246 58.2333 295.619 59.14C295.006 60.0467 294.199 60.7733 293.199 61.32C292.213 61.8533 291.113 62.12 289.899 62.12C288.593 62.12 287.399 61.82 286.319 61.22C285.239 60.6067 284.379 59.76 283.739 58.68C283.113 57.6 282.799 56.38 282.799 55.02C282.799 53.66 283.113 52.44 283.739 51.36C284.379 50.28 285.239 49.44 286.319 48.84C287.413 48.2267 288.606 47.92 289.899 47.92C291.379 47.92 292.693 48.2867 293.839 49.02C294.999 49.74 295.839 50.7667 296.359 52.1H293.619ZM301.308 48.1V62H299.028V48.1H301.308ZM313.282 48.1V49.96H309.582V62H307.302V49.96H303.582V48.1H313.282ZM323.971 59.16H318.151L317.151 62H314.771L319.751 48.08H322.391L327.371 62H324.971L323.971 59.16ZM323.331 57.3L321.071 50.84L318.791 57.3H323.331ZM331.816 60.16H336.516V62H329.536V48.1H331.816V60.16ZM345.898 48.1V62H343.618V48.1H345.898ZM360.311 62H358.031L351.171 51.62V62H348.891V48.08H351.171L358.031 58.44V48.08H360.311V62ZM374.725 62H372.445L365.585 51.62V62H363.305V48.08H365.585L372.445 58.44V48.08H374.725V62ZM384.06 62.14C382.766 62.14 381.573 61.84 380.48 61.24C379.4 60.6267 378.54 59.78 377.9 58.7C377.273 57.6067 376.96 56.38 376.96 55.02C376.96 53.66 377.273 52.44 377.9 51.36C378.54 50.28 379.4 49.44 380.48 48.84C381.573 48.2267 382.766 47.92 384.06 47.92C385.366 47.92 386.56 48.2267 387.64 48.84C388.733 49.44 389.593 50.28 390.22 51.36C390.846 52.44 391.16 53.66 391.16 55.02C391.16 56.38 390.846 57.6067 390.22 58.7C389.593 59.78 388.733 60.6267 387.64 61.24C386.56 61.84 385.366 62.14 384.06 62.14ZM384.06 60.16C384.98 60.16 385.8 59.9533 386.52 59.54C387.24 59.1133 387.8 58.5133 388.2 57.74C388.613 56.9533 388.82 56.0467 388.82 55.02C388.82 53.9933 388.613 53.0933 388.2 52.32C387.8 51.5467 387.24 50.9533 386.52 50.54C385.8 50.1267 384.98 49.92 384.06 49.92C383.14 49.92 382.32 50.1267 381.6 50.54C380.88 50.9533 380.313 51.5467 379.9 52.32C379.5 53.0933 379.3 53.9933 379.3 55.02C379.3 56.0467 379.5 56.9533 379.9 57.74C380.313 58.5133 380.88 59.1133 381.6 59.54C382.32 59.9533 383.14 60.16 384.06 60.16ZM405.383 48.1L400.163 62H397.523L392.283 48.1H394.723L398.843 59.66L402.983 48.1H405.383ZM415.67 59.16H409.85L408.85 62H406.47L411.45 48.08H414.09L419.07 62H416.67L415.67 59.16ZM415.03 57.3L412.77 50.84L410.49 57.3H415.03ZM430.215 48.1V49.96H426.515V62H424.235V49.96H420.515V48.1H430.215ZM434.804 48.1V62H432.524V48.1H434.804ZM444.138 62.14C442.844 62.14 441.651 61.84 440.558 61.24C439.478 60.6267 438.618 59.78 437.978 58.7C437.351 57.6067 437.038 56.38 437.038 55.02C437.038 53.66 437.351 52.44 437.978 51.36C438.618 50.28 439.478 49.44 440.558 48.84C441.651 48.2267 442.844 47.92 444.138 47.92C445.444 47.92 446.638 48.2267 447.718 48.84C448.811 49.44 449.671 50.28 450.298 51.36C450.924 52.44 451.238 53.66 451.238 55.02C451.238 56.38 450.924 57.6067 450.298 58.7C449.671 59.78 448.811 60.6267 447.718 61.24C446.638 61.84 445.444 62.14 444.138 62.14ZM444.138 60.16C445.058 60.16 445.878 59.9533 446.598 59.54C447.318 59.1133 447.878 58.5133 448.278 57.74C448.691 56.9533 448.898 56.0467 448.898 55.02C448.898 53.9933 448.691 53.0933 448.278 52.32C447.878 51.5467 447.318 50.9533 446.598 50.54C445.878 50.1267 445.058 49.92 444.138 49.92C443.218 49.92 442.398 50.1267 441.678 50.54C440.958 50.9533 440.391 51.5467 439.978 52.32C439.578 53.0933 439.378 53.9933 439.378 55.02C439.378 56.0467 439.578 56.9533 439.978 57.74C440.391 58.5133 440.958 59.1133 441.678 59.54C442.398 59.9533 443.218 60.16 444.138 60.16ZM464.901 62H462.621L455.761 51.62V62H453.481V48.08H455.761L462.621 58.44V48.08H464.901V62Z" fill="#F05624"/>
            <path d="M55.1498 72.09C54.8018 71.358 54.2978 70.794 53.6378 70.398C52.9778 69.99 52.2098 69.786 51.3338 69.786C50.4578 69.786 49.6658 69.99 48.9578 70.398C48.2618 70.794 47.7098 71.37 47.3018 72.126C46.9058 72.87 46.7078 73.734 46.7078 74.718C46.7078 75.702 46.9058 76.566 47.3018 77.31C47.7098 78.054 48.2618 78.63 48.9578 79.038C49.6658 79.434 50.4578 79.632 51.3338 79.632C52.5578 79.632 53.5658 79.266 54.3578 78.534C55.1498 77.802 55.6118 76.812 55.7438 75.564H50.7398V74.232H57.4898V75.492C57.3938 76.524 57.0698 77.472 56.5178 78.336C55.9658 79.188 55.2398 79.866 54.3398 80.37C53.4398 80.862 52.4378 81.108 51.3338 81.108C50.1698 81.108 49.1078 80.838 48.1478 80.298C47.1878 79.746 46.4258 78.984 45.8618 78.012C45.3098 77.04 45.0338 75.942 45.0338 74.718C45.0338 73.494 45.3098 72.396 45.8618 71.424C46.4258 70.44 47.1878 69.678 48.1478 69.138C49.1078 68.586 50.1698 68.31 51.3338 68.31C52.6658 68.31 53.8418 68.64 54.8618 69.3C55.8938 69.96 56.6438 70.89 57.1118 72.09H55.1498ZM68.6555 75.69C68.6555 76.002 68.6375 76.332 68.6015 76.68H60.7175C60.7775 77.652 61.1075 78.414 61.7075 78.966C62.3195 79.506 63.0575 79.776 63.9215 79.776C64.6295 79.776 65.2175 79.614 65.6855 79.29C66.1655 78.954 66.5015 78.51 66.6935 77.958H68.4575C68.1935 78.906 67.6655 79.68 66.8735 80.28C66.0815 80.868 65.0975 81.162 63.9215 81.162C62.9855 81.162 62.1455 80.952 61.4015 80.532C60.6695 80.112 60.0935 79.518 59.6735 78.75C59.2535 77.97 59.0435 77.07 59.0435 76.05C59.0435 75.03 59.2475 74.136 59.6555 73.368C60.0635 72.6 60.6335 72.012 61.3655 71.604C62.1095 71.184 62.9615 70.974 63.9215 70.974C64.8575 70.974 65.6855 71.178 66.4055 71.586C67.1255 71.994 67.6775 72.558 68.0615 73.278C68.4575 73.986 68.6555 74.79 68.6555 75.69ZM66.9635 75.348C66.9635 74.724 66.8255 74.19 66.5495 73.746C66.2735 73.29 65.8955 72.948 65.4155 72.72C64.9475 72.48 64.4255 72.36 63.8495 72.36C63.0215 72.36 62.3135 72.624 61.7255 73.152C61.1495 73.68 60.8195 74.412 60.7355 75.348H66.9635ZM72.8156 72.486V78.3C72.8156 78.78 72.9176 79.122 73.1216 79.326C73.3256 79.518 73.6796 79.614 74.1836 79.614H75.3896V81H73.9136C73.0016 81 72.3176 80.79 71.8616 80.37C71.4056 79.95 71.1776 79.26 71.1776 78.3V72.486H69.8996V71.136H71.1776V68.652H72.8156V71.136H75.3896V72.486H72.8156ZM88.7791 81L85.7911 75.87H83.8111V81H82.1731V68.454H86.2231C87.1711 68.454 87.9691 68.616 88.6171 68.94C89.2771 69.264 89.7691 69.702 90.0931 70.254C90.4171 70.806 90.5791 71.436 90.5791 72.144C90.5791 73.008 90.3271 73.77 89.8231 74.43C89.3311 75.09 88.5871 75.528 87.5911 75.744L90.7411 81H88.7791ZM83.8111 74.556H86.2231C87.1111 74.556 87.7771 74.34 88.2211 73.908C88.6651 73.464 88.8871 72.876 88.8871 72.144C88.8871 71.4 88.6651 70.824 88.2211 70.416C87.7891 70.008 87.1231 69.804 86.2231 69.804H83.8111V74.556ZM102.124 75.69C102.124 76.002 102.106 76.332 102.07 76.68H94.1863C94.2463 77.652 94.5763 78.414 95.1763 78.966C95.7883 79.506 96.5263 79.776 97.3903 79.776C98.0983 79.776 98.6863 79.614 99.1543 79.29C99.6343 78.954 99.9703 78.51 100.162 77.958H101.926C101.662 78.906 101.134 79.68 100.342 80.28C99.5503 80.868 98.5663 81.162 97.3903 81.162C96.4543 81.162 95.6143 80.952 94.8703 80.532C94.1383 80.112 93.5623 79.518 93.1423 78.75C92.7223 77.97 92.5123 77.07 92.5123 76.05C92.5123 75.03 92.7163 74.136 93.1243 73.368C93.5323 72.6 94.1023 72.012 94.8343 71.604C95.5783 71.184 96.4303 70.974 97.3903 70.974C98.3263 70.974 99.1543 71.178 99.8743 71.586C100.594 71.994 101.146 72.558 101.53 73.278C101.926 73.986 102.124 74.79 102.124 75.69ZM100.432 75.348C100.432 74.724 100.294 74.19 100.018 73.746C99.7423 73.29 99.3643 72.948 98.8843 72.72C98.4163 72.48 97.8943 72.36 97.3183 72.36C96.4903 72.36 95.7823 72.624 95.1943 73.152C94.6183 73.68 94.2883 74.412 94.2043 75.348H100.432ZM103.674 76.032C103.674 75.024 103.878 74.142 104.286 73.386C104.694 72.618 105.252 72.024 105.96 71.604C106.68 71.184 107.478 70.974 108.354 70.974C109.218 70.974 109.968 71.16 110.604 71.532C111.24 71.904 111.714 72.372 112.026 72.936V71.136H113.682V81H112.026V79.164C111.702 79.74 111.216 80.22 110.568 80.604C109.932 80.976 109.188 81.162 108.336 81.162C107.46 81.162 106.668 80.946 105.96 80.514C105.252 80.082 104.694 79.476 104.286 78.696C103.878 77.916 103.674 77.028 103.674 76.032ZM112.026 76.05C112.026 75.306 111.876 74.658 111.576 74.106C111.276 73.554 110.868 73.134 110.352 72.846C109.848 72.546 109.29 72.396 108.678 72.396C108.066 72.396 107.508 72.54 107.004 72.828C106.5 73.116 106.098 73.536 105.798 74.088C105.498 74.64 105.348 75.288 105.348 76.032C105.348 76.788 105.498 77.448 105.798 78.012C106.098 78.564 106.5 78.99 107.004 79.29C107.508 79.578 108.066 79.722 108.678 79.722C109.29 79.722 109.848 79.578 110.352 79.29C110.868 78.99 111.276 78.564 111.576 78.012C111.876 77.448 112.026 76.794 112.026 76.05ZM115.838 76.032C115.838 75.024 116.042 74.142 116.45 73.386C116.858 72.618 117.416 72.024 118.124 71.604C118.844 71.184 119.648 70.974 120.536 70.974C121.304 70.974 122.018 71.154 122.678 71.514C123.338 71.862 123.842 72.324 124.19 72.9V67.68H125.846V81H124.19V79.146C123.866 79.734 123.386 80.22 122.75 80.604C122.114 80.976 121.37 81.162 120.518 81.162C119.642 81.162 118.844 80.946 118.124 80.514C117.416 80.082 116.858 79.476 116.45 78.696C116.042 77.916 115.838 77.028 115.838 76.032ZM124.19 76.05C124.19 75.306 124.04 74.658 123.74 74.106C123.44 73.554 123.032 73.134 122.516 72.846C122.012 72.546 121.454 72.396 120.842 72.396C120.23 72.396 119.672 72.54 119.168 72.828C118.664 73.116 118.262 73.536 117.962 74.088C117.662 74.64 117.512 75.288 117.512 76.032C117.512 76.788 117.662 77.448 117.962 78.012C118.262 78.564 118.664 78.99 119.168 79.29C119.672 79.578 120.23 79.722 120.842 79.722C121.454 79.722 122.012 79.578 122.516 79.29C123.032 78.99 123.44 78.564 123.74 78.012C124.04 77.448 124.19 76.794 124.19 76.05ZM137.111 71.136L131.171 85.644H129.479L131.423 80.892L127.445 71.136H129.263L132.359 79.128L135.419 71.136H137.111ZM151.278 68.454V69.786H147.858V81H146.22V69.786H142.782V68.454H151.278ZM157.596 81.162C156.672 81.162 155.832 80.952 155.076 80.532C154.332 80.112 153.744 79.518 153.312 78.75C152.892 77.97 152.682 77.07 152.682 76.05C152.682 75.042 152.898 74.154 153.33 73.386C153.774 72.606 154.374 72.012 155.13 71.604C155.886 71.184 156.732 70.974 157.668 70.974C158.604 70.974 159.45 71.184 160.206 71.604C160.962 72.012 161.556 72.6 161.988 73.368C162.432 74.136 162.654 75.03 162.654 76.05C162.654 77.07 162.426 77.97 161.97 78.75C161.526 79.518 160.92 80.112 160.152 80.532C159.384 80.952 158.532 81.162 157.596 81.162ZM157.596 79.722C158.184 79.722 158.736 79.584 159.252 79.308C159.768 79.032 160.182 78.618 160.494 78.066C160.818 77.514 160.98 76.842 160.98 76.05C160.98 75.258 160.824 74.586 160.512 74.034C160.2 73.482 159.792 73.074 159.288 72.81C158.784 72.534 158.238 72.396 157.65 72.396C157.05 72.396 156.498 72.534 155.994 72.81C155.502 73.074 155.106 73.482 154.806 74.034C154.506 74.586 154.356 75.258 154.356 76.05C154.356 76.854 154.5 77.532 154.788 78.084C155.088 78.636 155.484 79.05 155.976 79.326C156.468 79.59 157.008 79.722 157.596 79.722ZM173.513 68.454C174.881 68.454 176.063 68.712 177.059 69.228C178.067 69.732 178.835 70.458 179.363 71.406C179.903 72.354 180.173 73.47 180.173 74.754C180.173 76.038 179.903 77.154 179.363 78.102C178.835 79.038 178.067 79.758 177.059 80.262C176.063 80.754 174.881 81 173.513 81H169.607V68.454H173.513ZM173.513 79.65C175.133 79.65 176.369 79.224 177.221 78.372C178.073 77.508 178.499 76.302 178.499 74.754C178.499 73.194 178.067 71.976 177.203 71.1C176.351 70.224 175.121 69.786 173.513 69.786H171.245V79.65H173.513ZM183.179 69.534C182.867 69.534 182.603 69.426 182.387 69.21C182.171 68.994 182.063 68.73 182.063 68.418C182.063 68.106 182.171 67.842 182.387 67.626C182.603 67.41 182.867 67.302 183.179 67.302C183.479 67.302 183.731 67.41 183.935 67.626C184.151 67.842 184.259 68.106 184.259 68.418C184.259 68.73 184.151 68.994 183.935 69.21C183.731 69.426 183.479 69.534 183.179 69.534ZM183.971 71.136V81H182.333V71.136H183.971ZM190.435 79.488L193.495 71.136H195.241L191.371 81H189.463L185.593 71.136H187.357L190.435 79.488ZM205.853 75.69C205.853 76.002 205.835 76.332 205.799 76.68H197.915C197.975 77.652 198.305 78.414 198.905 78.966C199.517 79.506 200.255 79.776 201.119 79.776C201.827 79.776 202.415 79.614 202.883 79.29C203.363 78.954 203.699 78.51 203.891 77.958H205.655C205.391 78.906 204.863 79.68 204.071 80.28C203.279 80.868 202.295 81.162 201.119 81.162C200.183 81.162 199.343 80.952 198.599 80.532C197.867 80.112 197.291 79.518 196.871 78.75C196.451 77.97 196.241 77.07 196.241 76.05C196.241 75.03 196.445 74.136 196.853 73.368C197.261 72.6 197.831 72.012 198.563 71.604C199.307 71.184 200.159 70.974 201.119 70.974C202.055 70.974 202.883 71.178 203.603 71.586C204.323 71.994 204.875 72.558 205.259 73.278C205.655 73.986 205.853 74.79 205.853 75.69ZM204.161 75.348C204.161 74.724 204.023 74.19 203.747 73.746C203.471 73.29 203.093 72.948 202.613 72.72C202.145 72.48 201.623 72.36 201.047 72.36C200.219 72.36 199.511 72.624 198.923 73.152C198.347 73.68 198.017 74.412 197.933 75.348H204.161ZM214.452 68.454V81H212.814V68.454H214.452ZM222.049 70.956C223.249 70.956 224.221 71.322 224.965 72.054C225.709 72.774 226.081 73.818 226.081 75.186V81H224.461V75.42C224.461 74.436 224.215 73.686 223.723 73.17C223.231 72.642 222.559 72.378 221.707 72.378C220.843 72.378 220.153 72.648 219.637 73.188C219.133 73.728 218.881 74.514 218.881 75.546V81H217.243V71.136H218.881V72.54C219.205 72.036 219.643 71.646 220.195 71.37C220.759 71.094 221.377 70.956 222.049 70.956ZM230.755 72.486V78.3C230.755 78.78 230.857 79.122 231.061 79.326C231.265 79.518 231.619 79.614 232.123 79.614H233.329V81H231.853C230.941 81 230.257 80.79 229.801 80.37C229.345 79.95 229.117 79.26 229.117 78.3V72.486H227.839V71.136H229.117V68.652H230.755V71.136H233.329V72.486H230.755ZM239.616 81.162C238.692 81.162 237.852 80.952 237.096 80.532C236.352 80.112 235.764 79.518 235.332 78.75C234.912 77.97 234.702 77.07 234.702 76.05C234.702 75.042 234.918 74.154 235.35 73.386C235.794 72.606 236.394 72.012 237.15 71.604C237.906 71.184 238.752 70.974 239.688 70.974C240.624 70.974 241.47 71.184 242.226 71.604C242.982 72.012 243.576 72.6 244.008 73.368C244.452 74.136 244.674 75.03 244.674 76.05C244.674 77.07 244.446 77.97 243.99 78.75C243.546 79.518 242.94 80.112 242.172 80.532C241.404 80.952 240.552 81.162 239.616 81.162ZM239.616 79.722C240.204 79.722 240.756 79.584 241.272 79.308C241.788 79.032 242.202 78.618 242.514 78.066C242.838 77.514 243 76.842 243 76.05C243 75.258 242.844 74.586 242.532 74.034C242.22 73.482 241.812 73.074 241.308 72.81C240.804 72.534 240.258 72.396 239.67 72.396C239.07 72.396 238.518 72.534 238.014 72.81C237.522 73.074 237.126 73.482 236.826 74.034C236.526 74.586 236.376 75.258 236.376 76.05C236.376 76.854 236.52 77.532 236.808 78.084C237.108 78.636 237.504 79.05 237.996 79.326C238.488 79.59 239.028 79.722 239.616 79.722ZM257.314 81.126C256.15 81.126 255.088 80.856 254.128 80.316C253.168 79.764 252.406 79.002 251.842 78.03C251.29 77.046 251.014 75.942 251.014 74.718C251.014 73.494 251.29 72.396 251.842 71.424C252.406 70.44 253.168 69.678 254.128 69.138C255.088 68.586 256.15 68.31 257.314 68.31C258.49 68.31 259.558 68.586 260.518 69.138C261.478 69.678 262.234 70.434 262.786 71.406C263.338 72.378 263.614 73.482 263.614 74.718C263.614 75.954 263.338 77.058 262.786 78.03C262.234 79.002 261.478 79.764 260.518 80.316C259.558 80.856 258.49 81.126 257.314 81.126ZM257.314 79.704C258.19 79.704 258.976 79.5 259.672 79.092C260.38 78.684 260.932 78.102 261.328 77.346C261.736 76.59 261.94 75.714 261.94 74.718C261.94 73.71 261.736 72.834 261.328 72.09C260.932 71.334 260.386 70.752 259.69 70.344C258.994 69.936 258.202 69.732 257.314 69.732C256.426 69.732 255.634 69.936 254.938 70.344C254.242 70.752 253.69 71.334 253.282 72.09C252.886 72.834 252.688 73.71 252.688 74.718C252.688 75.714 252.886 76.59 253.282 77.346C253.69 78.102 254.242 78.684 254.938 79.092C255.646 79.5 256.438 79.704 257.314 79.704ZM274.525 71.136V81H272.887V79.542C272.575 80.046 272.137 80.442 271.573 80.73C271.021 81.006 270.409 81.144 269.737 81.144C268.969 81.144 268.279 80.988 267.667 80.676C267.055 80.352 266.569 79.872 266.209 79.236C265.861 78.6 265.687 77.826 265.687 76.914V71.136H267.307V76.698C267.307 77.67 267.553 78.42 268.045 78.948C268.537 79.464 269.209 79.722 270.061 79.722C270.937 79.722 271.627 79.452 272.131 78.912C272.635 78.372 272.887 77.586 272.887 76.554V71.136H274.525ZM278.928 72.738C279.216 72.174 279.624 71.736 280.152 71.424C280.692 71.112 281.346 70.956 282.114 70.956V72.648H281.682C279.846 72.648 278.928 73.644 278.928 75.636V81H277.29V71.136H278.928V72.738ZM292.71 68.454C294.078 68.454 295.26 68.712 296.256 69.228C297.264 69.732 298.032 70.458 298.56 71.406C299.1 72.354 299.37 73.47 299.37 74.754C299.37 76.038 299.1 77.154 298.56 78.102C298.032 79.038 297.264 79.758 296.256 80.262C295.26 80.754 294.078 81 292.71 81H288.804V68.454H292.71ZM292.71 79.65C294.33 79.65 295.566 79.224 296.418 78.372C297.27 77.508 297.696 76.302 297.696 74.754C297.696 73.194 297.264 71.976 296.4 71.1C295.548 70.224 294.318 69.786 292.71 69.786H290.442V79.65H292.71ZM302.377 69.534C302.065 69.534 301.801 69.426 301.585 69.21C301.369 68.994 301.261 68.73 301.261 68.418C301.261 68.106 301.369 67.842 301.585 67.626C301.801 67.41 302.065 67.302 302.377 67.302C302.677 67.302 302.929 67.41 303.133 67.626C303.349 67.842 303.457 68.106 303.457 68.418C303.457 68.73 303.349 68.994 303.133 69.21C302.929 69.426 302.677 69.534 302.377 69.534ZM303.169 71.136V81H301.531V71.136H303.169ZM310.028 70.974C310.88 70.974 311.624 71.16 312.26 71.532C312.908 71.904 313.388 72.372 313.7 72.936V71.136H315.356V81.216C315.356 82.116 315.164 82.914 314.78 83.61C314.396 84.318 313.844 84.87 313.124 85.266C312.416 85.662 311.588 85.86 310.64 85.86C309.344 85.86 308.264 85.554 307.4 84.942C306.536 84.33 306.026 83.496 305.87 82.44H307.49C307.67 83.04 308.042 83.52 308.606 83.88C309.17 84.252 309.848 84.438 310.64 84.438C311.54 84.438 312.272 84.156 312.836 83.592C313.412 83.028 313.7 82.236 313.7 81.216V79.146C313.376 79.722 312.896 80.202 312.26 80.586C311.624 80.97 310.88 81.162 310.028 81.162C309.152 81.162 308.354 80.946 307.634 80.514C306.926 80.082 306.368 79.476 305.96 78.696C305.552 77.916 305.348 77.028 305.348 76.032C305.348 75.024 305.552 74.142 305.96 73.386C306.368 72.618 306.926 72.024 307.634 71.604C308.354 71.184 309.152 70.974 310.028 70.974ZM313.7 76.05C313.7 75.306 313.55 74.658 313.25 74.106C312.95 73.554 312.542 73.134 312.026 72.846C311.522 72.546 310.964 72.396 310.352 72.396C309.74 72.396 309.182 72.54 308.678 72.828C308.174 73.116 307.772 73.536 307.472 74.088C307.172 74.64 307.022 75.288 307.022 76.032C307.022 76.788 307.172 77.448 307.472 78.012C307.772 78.564 308.174 78.99 308.678 79.29C309.182 79.578 309.74 79.722 310.352 79.722C310.964 79.722 311.522 79.578 312.026 79.29C312.542 78.99 312.95 78.564 313.25 78.012C313.55 77.448 313.7 76.794 313.7 76.05ZM318.97 69.534C318.658 69.534 318.394 69.426 318.178 69.21C317.962 68.994 317.854 68.73 317.854 68.418C317.854 68.106 317.962 67.842 318.178 67.626C318.394 67.41 318.658 67.302 318.97 67.302C319.27 67.302 319.522 67.41 319.726 67.626C319.942 67.842 320.05 68.106 320.05 68.418C320.05 68.73 319.942 68.994 319.726 69.21C319.522 69.426 319.27 69.534 318.97 69.534ZM319.762 71.136V81H318.124V71.136H319.762ZM324.552 72.486V78.3C324.552 78.78 324.654 79.122 324.858 79.326C325.062 79.518 325.416 79.614 325.92 79.614H327.126V81H325.65C324.738 81 324.054 80.79 323.598 80.37C323.142 79.95 322.914 79.26 322.914 78.3V72.486H321.636V71.136H322.914V68.652H324.552V71.136H327.126V72.486H324.552ZM328.499 76.032C328.499 75.024 328.703 74.142 329.111 73.386C329.519 72.618 330.077 72.024 330.785 71.604C331.505 71.184 332.303 70.974 333.179 70.974C334.043 70.974 334.793 71.16 335.429 71.532C336.065 71.904 336.539 72.372 336.851 72.936V71.136H338.507V81H336.851V79.164C336.527 79.74 336.041 80.22 335.393 80.604C334.757 80.976 334.013 81.162 333.161 81.162C332.285 81.162 331.493 80.946 330.785 80.514C330.077 80.082 329.519 79.476 329.111 78.696C328.703 77.916 328.499 77.028 328.499 76.032ZM336.851 76.05C336.851 75.306 336.701 74.658 336.401 74.106C336.101 73.554 335.693 73.134 335.177 72.846C334.673 72.546 334.115 72.396 333.503 72.396C332.891 72.396 332.333 72.54 331.829 72.828C331.325 73.116 330.923 73.536 330.623 74.088C330.323 74.64 330.173 75.288 330.173 76.032C330.173 76.788 330.323 77.448 330.623 78.012C330.923 78.564 331.325 78.99 331.829 79.29C332.333 79.578 332.891 79.722 333.503 79.722C334.115 79.722 334.673 79.578 335.177 79.29C335.693 78.99 336.101 78.564 336.401 78.012C336.701 77.448 336.851 76.794 336.851 76.05ZM342.913 67.68V81H341.275V67.68H342.913ZM352.105 68.454V76.392C352.105 77.508 352.375 78.336 352.915 78.876C353.467 79.416 354.229 79.686 355.201 79.686C356.161 79.686 356.911 79.416 357.451 78.876C358.003 78.336 358.279 77.508 358.279 76.392V68.454H359.917V76.374C359.917 77.418 359.707 78.3 359.287 79.02C358.867 79.728 358.297 80.256 357.577 80.604C356.869 80.952 356.071 81.126 355.183 81.126C354.295 81.126 353.491 80.952 352.771 80.604C352.063 80.256 351.499 79.728 351.079 79.02C350.671 78.3 350.467 77.418 350.467 76.374V68.454H352.105ZM367.456 70.956C368.656 70.956 369.628 71.322 370.372 72.054C371.116 72.774 371.488 73.818 371.488 75.186V81H369.868V75.42C369.868 74.436 369.622 73.686 369.13 73.17C368.638 72.642 367.966 72.378 367.114 72.378C366.25 72.378 365.56 72.648 365.044 73.188C364.54 73.728 364.288 74.514 364.288 75.546V81H362.65V71.136H364.288V72.54C364.612 72.036 365.05 71.646 365.602 71.37C366.166 71.094 366.784 70.956 367.456 70.956ZM375.009 69.534C374.697 69.534 374.433 69.426 374.217 69.21C374.001 68.994 373.893 68.73 373.893 68.418C373.893 68.106 374.001 67.842 374.217 67.626C374.433 67.41 374.697 67.302 375.009 67.302C375.309 67.302 375.561 67.41 375.765 67.626C375.981 67.842 376.089 68.106 376.089 68.418C376.089 68.73 375.981 68.994 375.765 69.21C375.561 69.426 375.309 69.534 375.009 69.534ZM375.801 71.136V81H374.163V71.136H375.801ZM382.265 79.488L385.325 71.136H387.071L383.201 81H381.293L377.423 71.136H379.187L382.265 79.488ZM397.683 75.69C397.683 76.002 397.665 76.332 397.629 76.68H389.745C389.805 77.652 390.135 78.414 390.735 78.966C391.347 79.506 392.085 79.776 392.949 79.776C393.657 79.776 394.245 79.614 394.713 79.29C395.193 78.954 395.529 78.51 395.721 77.958H397.485C397.221 78.906 396.693 79.68 395.901 80.28C395.109 80.868 394.125 81.162 392.949 81.162C392.013 81.162 391.173 80.952 390.429 80.532C389.697 80.112 389.121 79.518 388.701 78.75C388.281 77.97 388.071 77.07 388.071 76.05C388.071 75.03 388.275 74.136 388.683 73.368C389.091 72.6 389.661 72.012 390.393 71.604C391.137 71.184 391.989 70.974 392.949 70.974C393.885 70.974 394.713 71.178 395.433 71.586C396.153 71.994 396.705 72.558 397.089 73.278C397.485 73.986 397.683 74.79 397.683 75.69ZM395.991 75.348C395.991 74.724 395.853 74.19 395.577 73.746C395.301 73.29 394.923 72.948 394.443 72.72C393.975 72.48 393.453 72.36 392.877 72.36C392.049 72.36 391.341 72.624 390.753 73.152C390.177 73.68 389.847 74.412 389.763 75.348H395.991ZM401.483 72.738C401.771 72.174 402.179 71.736 402.707 71.424C403.247 71.112 403.901 70.956 404.669 70.956V72.648H404.237C402.401 72.648 401.483 73.644 401.483 75.636V81H399.845V71.136H401.483V72.738ZM410.052 81.162C409.296 81.162 408.618 81.036 408.018 80.784C407.418 80.52 406.944 80.16 406.596 79.704C406.248 79.236 406.056 78.702 406.02 78.102H407.712C407.76 78.594 407.988 78.996 408.396 79.308C408.816 79.62 409.362 79.776 410.034 79.776C410.658 79.776 411.15 79.638 411.51 79.362C411.87 79.086 412.05 78.738 412.05 78.318C412.05 77.886 411.858 77.568 411.474 77.364C411.09 77.148 410.496 76.938 409.692 76.734C408.96 76.542 408.36 76.35 407.892 76.158C407.436 75.954 407.04 75.66 406.704 75.276C406.38 74.88 406.218 74.364 406.218 73.728C406.218 73.224 406.368 72.762 406.668 72.342C406.968 71.922 407.394 71.592 407.946 71.352C408.498 71.1 409.128 70.974 409.836 70.974C410.928 70.974 411.81 71.25 412.482 71.802C413.154 72.354 413.514 73.11 413.562 74.07H411.924C411.888 73.554 411.678 73.14 411.294 72.828C410.922 72.516 410.418 72.36 409.782 72.36C409.194 72.36 408.726 72.486 408.378 72.738C408.03 72.99 407.856 73.32 407.856 73.728C407.856 74.052 407.958 74.322 408.162 74.538C408.378 74.742 408.642 74.91 408.954 75.042C409.278 75.162 409.722 75.3 410.286 75.456C410.994 75.648 411.57 75.84 412.014 76.032C412.458 76.212 412.836 76.488 413.148 76.86C413.472 77.232 413.64 77.718 413.652 78.318C413.652 78.858 413.502 79.344 413.202 79.776C412.902 80.208 412.476 80.55 411.924 80.802C411.384 81.042 410.76 81.162 410.052 81.162ZM424.964 75.69C424.964 76.002 424.946 76.332 424.91 76.68H417.026C417.086 77.652 417.416 78.414 418.016 78.966C418.628 79.506 419.366 79.776 420.23 79.776C420.938 79.776 421.526 79.614 421.994 79.29C422.474 78.954 422.81 78.51 423.002 77.958H424.766C424.502 78.906 423.974 79.68 423.182 80.28C422.39 80.868 421.406 81.162 420.23 81.162C419.294 81.162 418.454 80.952 417.71 80.532C416.978 80.112 416.402 79.518 415.982 78.75C415.562 77.97 415.352 77.07 415.352 76.05C415.352 75.03 415.556 74.136 415.964 73.368C416.372 72.6 416.942 72.012 417.674 71.604C418.418 71.184 419.27 70.974 420.23 70.974C421.166 70.974 421.994 71.178 422.714 71.586C423.434 71.994 423.986 72.558 424.37 73.278C424.766 73.986 424.964 74.79 424.964 75.69ZM423.272 75.348C423.272 74.724 423.134 74.19 422.858 73.746C422.582 73.29 422.204 72.948 421.724 72.72C421.256 72.48 420.734 72.36 420.158 72.36C419.33 72.36 418.622 72.624 418.034 73.152C417.458 73.68 417.128 74.412 417.044 75.348H423.272Z" fill="white"/>
            </svg>