<svg width="38" height="32" viewBox="0 0 38 32" fill="none" xmlns="http://www.w3.org/2000/svg">
<path d="M12.368 27.3313H8.11501H5.52101V21.9023H14.992C15.173 21.9023 15.324 21.7513 15.324 21.6303V17.7993C15.324 17.6483 15.173 17.5273 14.992 17.5273H5.52101V12.0683H12.368V7.69434H1.23801C1.05701 7.69434 0.906006 7.84534 0.906006 7.96634V31.5533C0.906006 31.6743 1.05701 31.8253 1.23801 31.8253H8.11501H12.368H18.749V27.3313H12.368Z" fill="white"/>
<path d="M12.2739 26.0264L18.7489 31.8253V26.0264H12.2739Z" fill="#6F53A2"/>
<path d="M24.3659 0.507324H12.2739V26.0263H24.3659C31.4329 26.0263 37.1259 20.2943 37.1259 13.2273C37.1249 6.20033 32.1789 0.507324 24.3659 0.507324ZM31.5819 12.5123C31.2369 12.9123 30.8929 13.3133 30.5489 13.7133C28.2209 16.4233 25.8929 19.1323 23.5649 21.8423C23.5309 21.8823 23.4989 21.9223 23.4629 21.9603C23.3569 22.0723 23.2199 22.1193 23.0509 22.0693C22.8849 22.0213 22.7999 21.9193 22.8119 21.7763C22.8419 21.4153 22.8759 21.0553 22.9119 20.6953C22.9799 20.0173 23.0519 19.3393 23.1199 18.6603C23.2219 17.6393 23.3229 16.6193 23.4239 15.5983C23.4419 15.4123 23.4509 15.2253 23.4799 15.0403C23.5029 14.8943 23.4579 14.8433 23.2609 14.8453C22.3689 14.8543 21.4779 14.8493 20.5859 14.8493C19.7019 14.8493 18.8169 14.8483 17.9329 14.8503C17.7519 14.8513 17.5909 14.8333 17.4979 14.6863C17.4099 14.5463 17.4849 14.4343 17.5829 14.3203C20.2849 11.1763 22.9869 8.03132 25.6869 4.88632C25.7999 4.75432 25.9379 4.67533 26.1379 4.73233C26.3369 4.78933 26.3919 4.92032 26.3759 5.08032C26.2909 5.90832 26.2069 6.73734 26.1249 7.56534C26.0589 8.22534 25.9979 8.88633 25.9329 9.54733C25.8639 10.2433 25.7929 10.9403 25.7229 11.6363C25.7199 11.6663 25.7169 11.6963 25.7149 11.7263C25.6989 11.9533 25.6989 11.9543 25.9719 11.9543C27.6809 11.9543 29.3899 11.9543 31.0999 11.9543C31.1449 11.9543 31.1889 11.9563 31.2339 11.9543C31.4199 11.9473 31.5929 11.9603 31.6919 12.1163C31.7909 12.2733 31.6869 12.3913 31.5819 12.5123Z" fill="white"/>
</svg>
