<svg width="76" height="66" viewBox="0 0 76 66" fill="none" xmlns="http://www.w3.org/2000/svg">
<path d="M37.9995 65.5973H0.425781V15.12H37.9995V23.5341H9.88629V35.6257H37.9995V44.741H10.3261V55.7808H27.2567L37.9995 65.5973Z" fill="#E7116F"/>
<path d="M49.1214 0.402832H24.6016V53.3268H49.1214C63.7259 53.3268 75.572 41.4814 75.572 26.8611C75.5646 12.2482 63.7259 0.402832 49.1214 0.402832ZM64.9709 24.7575L47.5036 44.659C47.2352 44.9649 46.7357 44.7485 46.773 44.3457L48.0627 29.4942H36.2017C35.8438 29.4942 35.65 29.069 35.8886 28.8005L52.8564 9.39878C53.1173 9.10041 53.6168 9.30181 53.587 9.70462L52.6178 24.0638H64.6578C65.0156 24.0638 65.2094 24.489 64.9709 24.7575Z" fill="#FF6934"/>
<path d="M24.6016 53.3267H37.9984V65.5972L24.6016 53.3267Z" fill="#6B4F95"/>
</svg>
