<svg width="162" height="16" viewBox="0 0 162 16" fill="none" xmlns="http://www.w3.org/2000/svg">
<path d="M34.1346 4.52088C33.196 5.05943 32.3427 5.55201 31.5091 6.03146C29.2051 3.89039 27.8726 3.52258 26.1791 4.53401C24.676 5.42721 23.9015 7.24647 24.3347 8.88182C24.8138 10.6682 26.3564 11.9358 28.0958 11.9489C29.7237 11.9686 30.7411 11.1674 31.299 9.31529C29.9666 9.31529 28.68 9.31529 27.2622 9.31529C27.2622 8.45493 27.2622 7.75217 27.2622 6.78016C29.7565 6.71448 32.2902 6.70135 34.8042 6.79986C35.5722 10.4449 33.5898 13.9849 30.2225 14.7927C25.8969 15.8304 22.4836 13.8667 21.2562 10.3267C20.009 6.70791 21.7025 2.79358 25.1749 1.42094C28.0827 0.271594 32.73 1.07942 34.1346 4.52088Z" fill="#F05624"/>
<path d="M0.507812 14.9242C0.507812 10.2808 0.507812 5.82138 0.507812 1.12549C3.4222 1.23057 6.35628 0.639487 9.17222 1.92018C11.7453 3.08266 13.0056 5.31566 12.8546 8.48128C12.7233 11.3054 11.1808 13.3742 8.54207 14.3134C5.9887 15.2197 3.35 14.8913 0.507812 14.9242ZM3.71758 11.9556C5.86399 12.4088 7.76097 11.7389 8.8112 10.2152C9.6842 8.94103 9.69077 7.01669 8.82433 5.7557C7.76753 4.21887 5.92307 3.57524 3.71758 4.03497C3.71758 6.66861 3.71758 9.32195 3.71758 11.9556Z" fill="#F05624"/>
<path d="M67.5916 14.8645C66.2329 14.8645 65.1433 14.8645 63.9158 14.8645C63.5089 13.8991 63.0822 12.9008 62.6424 11.8631C61.0671 11.8631 59.5574 11.8631 57.923 11.8631C57.516 12.8483 57.1025 13.8531 56.6889 14.8448C55.4549 14.8448 54.3259 14.8448 53 14.8448C54.8248 10.2015 56.5905 5.70921 58.3759 1.18408C59.6558 1.18408 60.857 1.18408 62.1829 1.18408C63.9421 5.63696 65.7143 10.1293 67.5916 14.8645ZM61.6316 9.15068C61.264 7.84372 60.9817 6.69437 60.1481 5.53189C59.7018 6.83229 59.3342 7.90939 58.9075 9.15068C59.879 9.15068 60.6404 9.15068 61.6316 9.15068Z" fill="#F05624"/>
<path d="M49.8828 3.7915C49.8828 7.55478 49.8828 11.1276 49.8828 14.8186C48.7538 14.8186 47.7823 14.8186 46.6008 14.8186C46.6008 11.2261 46.6008 7.61387 46.6008 3.83746C45.3143 3.83746 44.2246 3.83746 43.0234 3.83746C43.0234 2.87201 43.0234 2.07077 43.0234 1.19727C46.5351 1.19727 49.9878 1.19727 53.5061 1.19727C53.5061 2.05763 53.5061 2.82605 53.5061 3.78493C52.2983 3.7915 51.1693 3.7915 49.8828 3.7915Z" fill="#F05624"/>
<path d="M77.98 12.1394C77.98 13.1377 77.98 13.9061 77.98 14.8125C75.2034 14.8125 72.4531 14.8125 69.5781 14.8125C69.5781 10.307 69.5781 5.84759 69.5781 1.24365C70.5299 1.24365 71.4948 1.24365 72.6304 1.24365C72.6304 4.79019 72.6304 8.34987 72.6304 12.1394C74.488 12.1394 76.1946 12.1394 77.98 12.1394Z" fill="#F05624"/>
<path d="M15.2422 1.19116C16.3646 1.19116 17.3492 1.19116 18.406 1.19116C18.406 5.74256 18.406 10.2086 18.406 14.8059C17.4017 14.8059 16.3843 14.8059 15.2422 14.8059C15.2422 10.3005 15.2422 5.80167 15.2422 1.19116Z" fill="#F05624"/>
<path d="M40.2442 14.858C39.2334 14.858 38.3079 14.858 37.2773 14.858C37.2773 10.2803 37.2773 5.78807 37.2773 1.19727C38.2619 1.19727 39.194 1.19727 40.2442 1.19727C40.2442 5.69612 40.2442 10.195 40.2442 14.858Z" fill="#F05624"/>
<path d="M100.637 14.5883C100.125 14.5883 99.8365 14.5883 99.4492 14.5883C99.4492 10.1354 99.4492 5.72852 99.4492 1.20996C99.9153 1.17056 100.368 1.13115 100.926 1.07861C103.86 4.9207 106.794 8.76278 109.728 12.6049C109.847 12.5852 109.965 12.572 110.083 12.5523C110.168 10.7134 110.116 8.86786 110.122 7.02235C110.135 5.13086 110.122 3.23281 110.122 1.2231C110.496 1.19026 110.785 1.16399 111.199 1.12458C111.199 5.63657 111.199 10.0829 111.199 14.6014C110.726 14.6014 110.267 14.6014 109.748 14.6014C106.821 10.7725 103.886 6.92383 100.952 3.08175C100.847 3.10802 100.736 3.12773 100.631 3.154C100.637 6.94355 100.637 10.7331 100.637 14.5883Z" fill="white"/>
<path d="M148.778 3.69302C148.509 3.93603 148.286 4.13308 147.971 4.40892C146.553 2.91149 144.912 2.03798 142.792 2.23501C141.63 2.34009 140.652 2.7473 139.785 3.48287C137.856 5.11823 137.258 7.94888 138.348 10.2607C139.464 12.6382 141.971 13.9189 144.636 13.4592C146.966 13.0585 148.483 11.3378 148.673 8.71731C146.901 8.71731 145.135 8.71731 143.284 8.71731C143.218 8.27071 143.179 7.98173 143.12 7.56797C145.424 7.56797 147.656 7.56797 149.874 7.56797C150.275 11.0094 148.476 13.7284 145.293 14.5691C142.011 15.436 138.558 13.7679 137.18 10.6482C135.801 7.52856 136.917 3.78498 139.713 1.97887C142.444 0.212168 146.71 0.737572 148.778 3.69302Z" fill="white"/>
<path d="M126.808 9.45347C126.808 11.1282 126.808 12.803 126.808 14.5631C126.374 14.5631 126.046 14.5631 125.633 14.5631C125.633 10.0971 125.633 5.69675 125.633 1.18476C127.333 1.18476 128.961 1.04028 130.556 1.2176C132.656 1.45404 134.041 2.99744 134.12 4.82982C134.205 6.89864 133.083 8.33696 130.917 8.91492C130.47 9.03313 130.017 9.11194 129.164 9.29583C131.461 11.1348 133.509 12.7701 135.794 14.5959C134.94 14.5959 134.435 14.5959 133.772 14.5959C131.639 12.8818 129.394 11.0757 127.155 9.27613C127.044 9.34181 126.926 9.40093 126.808 9.45347ZM126.88 8.03485C128.521 8.05455 129.985 8.28443 131.37 7.52915C132.334 7.00373 132.873 6.22217 132.919 5.1385C132.965 4.00886 132.334 3.27329 131.376 2.78071C129.939 2.04513 128.449 2.29471 126.886 2.41292C126.88 4.31098 126.88 6.07768 126.88 8.03485Z" fill="white"/>
<path d="M122.575 13.3669C122.575 13.9317 122.575 14.2273 122.575 14.5951C120.087 14.5951 117.672 14.5951 114.974 14.5951C114.941 10.1619 114.967 5.72215 114.961 1.19702C117.501 1.19702 119.851 1.19702 122.319 1.19702C122.319 1.52541 122.319 1.84066 122.319 2.33324C120.33 2.33324 118.4 2.33324 116.385 2.33324C116.385 3.96202 116.385 5.41348 116.385 7.05539C118.243 7.05539 120.068 7.05539 121.991 7.05539C121.991 7.55454 121.991 7.87634 121.991 8.37548C120.127 8.37548 118.302 8.37548 116.392 8.37548C116.392 10.0962 116.392 11.6462 116.392 13.3735C118.466 13.3669 120.455 13.3669 122.575 13.3669Z" fill="white"/>
<path d="M95.9833 7.08217C95.9833 7.62072 95.9833 7.87686 95.9833 8.29062C94.0863 8.29062 92.209 8.29062 90.2004 8.29062C90.2004 10.0311 90.2004 11.6204 90.2004 13.374C92.2418 13.374 94.2241 13.374 96.3115 13.374C96.3377 13.8535 96.364 14.1884 96.3837 14.5956C93.8894 14.5956 91.4804 14.5956 88.9336 14.5956C88.9336 10.1427 88.9336 5.70954 88.9336 1.19098C91.3491 1.19098 93.699 1.19098 96.1671 1.19098C96.1671 1.51279 96.1671 1.83461 96.1671 2.29434C94.165 2.29434 92.2287 2.29434 90.1807 2.29434C90.1807 3.92313 90.1807 5.41398 90.1807 7.08217C92.0843 7.08217 93.955 7.08217 95.9833 7.08217Z" fill="white"/>
<path d="M155.892 7.17423C157.375 4.99376 158.675 3.08257 159.994 1.15168C160.428 1.15168 160.841 1.15168 161.491 1.15168C159.784 3.60799 158.17 5.92637 156.45 8.40238C156.45 10.353 156.45 12.4481 156.45 14.5957C156.03 14.5957 155.734 14.5957 155.334 14.5957C155.334 12.4875 155.334 10.4449 155.334 8.42866C153.667 6.02489 152.045 3.69336 150.313 1.19108C150.923 1.16481 151.35 1.14511 151.776 1.11884C153.122 3.10227 154.415 5.0069 155.892 7.17423Z" fill="white"/>
</svg>
